<svg width="900" height="700" viewBox="0 0 900 700" fill="none" xmlns="http://www.w3.org/2000/svg">
  <rect width="900" height="700" rx="42" fill="#FFF9F4"/>
  <circle cx="750" cy="100" r="210" fill="#7A0024" fill-opacity="0.09"/>
  <circle cx="120" cy="620" r="260" fill="#F36A21" fill-opacity="0.13"/>
  <rect x="96" y="90" width="708" height="460" rx="36" fill="white" stroke="#7A0024" stroke-opacity="0.13"/>
  <path d="M454 172C384 172 328 229 328 299V440C328 486 365 523 411 523H497C543 523 580 486 580 440V299C580 229 524 172 454 172Z" fill="#7A0024" fill-opacity="0.08"/>
  <path d="M500 235C461 212 409 221 382 263C354 307 372 364 414 389" stroke="#F36A21" stroke-width="16" stroke-linecap="round"/>
  <text x="450" y="626" text-anchor="middle" font-family="Tahoma, Arial" font-size="42" font-weight="700" fill="#7A0024">صورة قبل</text>
</svg>
