<svg width="900" height="1100" viewBox="0 0 900 1100" fill="none" xmlns="http://www.w3.org/2000/svg">
  <rect width="900" height="1100" rx="60" fill="#FFF0E8"/>
  <circle cx="700" cy="180" r="220" fill="#F36A21" fill-opacity="0.16"/>
  <circle cx="190" cy="890" r="260" fill="#7A0024" fill-opacity="0.11"/>
  <rect x="110" y="150" width="680" height="800" rx="44" fill="white" fill-opacity="0.78" stroke="#7A0024" stroke-opacity="0.12"/>
  <path d="M540 330C500 248 383 255 343 330C320 374 330 433 364 468C321 485 286 533 286 599C286 703 371 787 475 787C579 787 664 703 664 599C664 533 629 485 586 468C620 433 563 377 540 330Z" fill="#F36A21" fill-opacity="0.16"/>
  <path d="M450 280C365 280 296 350 296 436V725C296 776 338 818 389 818H511C562 818 604 776 604 725V436C604 350 535 280 450 280Z" fill="#7A0024" fill-opacity="0.08"/>
  <path d="M327 420C372 360 456 338 536 389C546 467 511 542 436 582C404 599 386 631 388 668" stroke="#7A0024" stroke-width="24" stroke-linecap="round"/>
  <path d="M340 734C415 773 504 770 582 724" stroke="#F36A21" stroke-width="16" stroke-linecap="round"/>
  <text x="450" y="998" text-anchor="middle" font-family="Tahoma, Arial" font-size="42" font-weight="700" fill="#7A0024">ضعي صورة الدكتور / الموديل هنا</text>
</svg>
